<svg xmlns="http://www.w3.org/2000/svg" viewBox="0 0 512 512">
  <defs>
    <linearGradient id="tile" x1="96" y1="48" x2="424" y2="472" gradientUnits="userSpaceOnUse">
      <stop stop-color="#18181A"/>
      <stop offset="0.54" stop-color="#09090A"/>
      <stop offset="1" stop-color="#050506"/>
    </linearGradient>
    <linearGradient id="ray" x1="90" y1="80" x2="410" y2="430" gradientUnits="userSpaceOnUse">
      <stop stop-color="#FF6363"/>
      <stop offset="0.55" stop-color="#7B1E2E"/>
      <stop offset="1" stop-color="#25070C"/>
    </linearGradient>
  </defs>
  <rect width="512" height="512" rx="112" fill="url(#tile)"/>
  <path d="M96 386 356 126c30-30 82-9 82 34v178c0 43-52 64-82 34L212 228 96 344c-12 12-12 30 0 42Z" fill="url(#ray)" opacity="0.86"/>
  <path d="M344 118v202c0 70-42 112-112 112-39 0-73-15-96-43l50-56c13 15 27 22 44 22 25 0 38-15 38-44V118h76Z" fill="#F7F4EF"/>
  <rect x="8" y="8" width="496" height="496" rx="104" fill="none" stroke="#FFFFFF" stroke-opacity="0.10" stroke-width="8"/>
</svg>
