<svg xmlns="http://www.w3.org/2000/svg" viewBox="0 0 512 512" width="512" height="512">
  <defs>
    <linearGradient id="tile" x1="72" y1="36" x2="440" y2="476" gradientUnits="userSpaceOnUse">
      <stop stop-color="#18181A"/>
      <stop offset="0.58" stop-color="#09090A"/>
      <stop offset="1" stop-color="#050506"/>
    </linearGradient>
    <linearGradient id="ray" x1="72" y1="70" x2="430" y2="430" gradientUnits="userSpaceOnUse">
      <stop stop-color="#FF6363"/>
      <stop offset="0.58" stop-color="#7B1E2E"/>
      <stop offset="1" stop-color="#25070C"/>
    </linearGradient>
  </defs>
  <rect width="512" height="512" fill="url(#tile)"/>
  <path d="M86 386 356 116c31-31 84-9 84 35v194c0 44-53 66-84 35L214 238 86 366c-6 6-6 14 0 20Z" fill="url(#ray)" opacity="0.9"/>
  <path d="M350 112v208c0 72-44 116-116 116-42 0-78-16-102-46l52-58c14 16 29 24 48 24 26 0 40-16 40-46V112h78Z" fill="#F7F4EF"/>
</svg>
